# xmcd
# 
# Track frame offsets:
#     150
#     14777
#     29017
#     43789
#     58918
#     71612
#     89192
#     104332
#     118953
#     134279
#     149764
#     160032
# 
# Disc length: 2384
# 
# Revision: 0
# Processed by: cddbd v1.5.2PL0 Copyright (c) Steve Scherf et al.
# Submitted via: fre:ac v1.0.17
# 
DISCID=c2094e0c
DTITLE=Andy_Martin - Island_Country
DYEAR=0
DGENRE=Country
TTITLE0=Go_Back_Where_You_Came_From
TTITLE1=Nothing_To_Loose_But_My_Mind
TTITLE2=Since_She_Rides_Horses
TTITLE3=On_Guana_Cay
TTITLE4=Heaven_Cant_Be_Paradise(If_Theres_No_Place_To_Go)
TTITLE5=Take_Me_With_You_When_You_Go
TTITLE6=Run_But_You_Can't_Hide
TTITLE7=Lonesome
TTITLE8=I_Cant_Write_A_Country_Song
TTITLE9=Its_Just_A_Thought
TTITLE10=Island_Jamboree
TTITLE11=If_You_See_Kay
EXTD=
EXTT0=
EXTT1=
EXTT2=
EXTT3=
EXTT4=
EXTT5=
EXTT6=
EXTT7=
EXTT8=
EXTT9=
EXTT10=
EXTT11=
PLAYORDER=
